<?xml version="1.0" encoding="UTF-8"?>
<svg xmlns="http://www.w3.org/2000/svg" xmlns:xlink="http://www.w3.org/1999/xlink" viewBox="0 0 128 128" width="128px" height="128px">
<g id="surface7331465">
<path style=" stroke:none;fill-rule:nonzero;fill:rgb(0%,0%,0%);fill-opacity:1;" d="M 64 12 C 35.28125 12 12 35.28125 12 64 C 12 88.554688 29.023438 109.121094 51.910156 114.570312 C 50.726562 114.289062 49.550781 113.972656 48.398438 113.613281 L 48.398438 101.699219 C 48.398438 101.699219 46.449219 102.351562 43.851562 102.351562 C 36.574219 102.351562 33.554688 95.859375 32.800781 92.601562 C 32.34375 90.613281 31.144531 88.730469 29.863281 87.582031 C 28.328125 86.214844 27.609375 86.210938 27.601562 85.742188 C 27.578125 84.761719 28.914062 84.800781 29.550781 84.800781 C 32.800781 84.800781 35.265625 88.257812 36.40625 90.046875 C 39.242188 94.460938 42.285156 95.199219 43.851562 95.199219 C 45.800781 95.199219 47.484375 94.90625 48.644531 94.347656 C 49.179688 90.570312 50.859375 87.207031 53.601562 84.800781 C 41.40625 82.363281 32.800781 75.367188 32.800781 64 C 32.800781 58.144531 35.148438 52.761719 39.066406 48.414062 C 38.664062 47.28125 38 44.988281 38 41.25 C 38 38.78125 38.171875 35.746094 39.300781 32.800781 C 39.300781 32.800781 46.714844 32.851562 53.710938 39.476562 C 56.9375 38.535156 60.390625 38 64 38 C 67.609375 38 71.0625 38.535156 74.289062 39.476562 C 81.285156 32.851562 88.699219 32.800781 88.699219 32.800781 C 89.835938 35.746094 90 38.78125 90 41.25 C 90 45.28125 89.464844 47.628906 89.136719 48.644531 C 92.933594 52.949219 95.199219 58.246094 95.199219 64 C 95.199219 75.367188 86.59375 82.363281 74.398438 84.800781 C 77.65625 87.660156 79.601562 91.824219 79.601562 96.5 L 79.601562 113.613281 C 78.449219 113.976562 77.277344 114.289062 76.089844 114.570312 C 98.976562 109.121094 116 88.554688 116 64 C 116 35.28125 92.71875 12 64 12 Z M 67.625 115.859375 C 66.429688 115.945312 65.21875 116 64 116 C 65.21875 116 66.425781 115.941406 67.625 115.859375 Z M 75.570312 114.691406 C 73.242188 115.222656 70.859375 115.59375 68.421875 115.800781 C 70.859375 115.59375 73.242188 115.21875 75.570312 114.691406 Z M 64 116 C 62.78125 116 61.570312 115.945312 60.375 115.859375 C 61.574219 115.941406 62.78125 116 64 116 Z M 59.574219 115.800781 C 57.140625 115.59375 54.753906 115.222656 52.429688 114.691406 C 54.757812 115.21875 57.140625 115.59375 59.574219 115.800781 Z M 59.574219 115.800781 "/>
</g>
</svg>
